<?xml version="1.0" encoding="utf-8"?>
<!-- Generator: Adobe Illustrator 25.4.1, SVG Export Plug-In . SVG Version: 6.00 Build 0)  -->
<svg version="1.1" id="Layer_1" xmlns="http://www.w3.org/2000/svg" xmlns:xlink="http://www.w3.org/1999/xlink" x="0px" y="0px"
	 viewBox="0 0 30 30" style="enable-background:new 0 0 30 30;" xml:space="preserve">
<style type="text/css">
	.st0{fill:#A0A0A0;}
</style>
<g>
	<path class="st0" d="M28.7,14.6C26.5,9.5,21,6.1,15,6.1c-6,0-11.5,3.4-13.7,8.5L1.1,15l0.2,0.4C3.6,20.6,9,23.9,15,23.9
		c6.1,0,11.5-3.3,13.7-8.5l0.2-0.4L28.7,14.6z M15,8.4c4.1,0,7.5,3,7.5,6.7s-3.4,6.7-7.5,6.7c-4.1,0-7.5-3-7.5-6.7S10.9,8.4,15,8.4z
		"/>
	<path class="st0" d="M15,18.2c1.7,0,3-1.4,3-3.2s-1.4-3.2-3-3.2c-1.7,0-3,1.4-3,3.2S13.3,18.2,15,18.2z"/>
</g>
<g>
	<g>
		<rect x="14.3" y="-0.4" transform="matrix(0.7071 -0.7071 0.7071 0.7071 -6.4859 15.3914)" class="st0" width="2" height="31.8"/>
		<path class="st0" d="M25.9,28.2L2.7,5l2.1-2.1L28,26.1L25.9,28.2z M4.1,5l21.8,21.8l0.7-0.7L4.8,4.3L4.1,5z"/>
	</g>
</g>
</svg>
